<svg id="social_tw" xmlns="http://www.w3.org/2000/svg" viewBox="0 0 350 350"><path d="M306.3 109.6c.2 3 .2 5.9.2 8.7 0 89.5-68.2 192.9-192.9 192.9-38.2 0-73.9-11.3-104-30.6 5.2.6 10.6.8 16.1.8 31.8 0 61-10.9 84.3-29-29.7-.6-54.8-20.1-63.4-47.1 4.1.8 8.4 1.3 12.7 1.3 6.3 0 12.2-.8 17.8-2.2-30.9-6.3-54.4-33.6-54.4-66.6v-.8c9.2 5.1 19.7 8.1 30.8 8.6-18.2-12.2-30.1-32.8-30.1-56.4 0-12.4 3.3-24.1 9.2-34.1 33.5 41 83.4 68 139.7 70.9-1.3-5.1-1.7-10-1.7-15.5 0-37.4 30.3-67.7 67.7-67.7 19.5 0 37.1 8.1 49.6 21.4 15.5-3.2 29.9-8.6 43.1-16.5-5.1 15.9-15.9 29-29.9 37.4 13.8-1.7 26.8-5.2 38.9-10.6-9 13.6-20.6 25.5-33.7 35.1z"/></svg>